# xmcd
#
# Track frame offsets:
#	150
#	15865
#	33048
#	48911
#	62116
#	75008
#	91243
#	109527
#	120761
#	132483
#
# Disc length: 1900 seconds
#
# Revision: 1
# Processed by: cddbd v1.5.1PL0 Copyright (c) Steve Scherf et al.
# Submitted via: EasyCDDAExtractor 7.1.1.1
#
DISCID=5f076a0a
DTITLE=101 String Orchestra - The Best of Love
DYEAR=1999
DGENRE=Easy
TTITLE0=Second Time Around
TTITLE1=Over the Rainbow
TTITLE2=Stormy Weather
TTITLE3=Our Love Was Young
TTITLE4=Pastel Petticoats
TTITLE5=Raindrops
TTITLE6=Claire De Lune
TTITLE7=Moonlight Love
TTITLE8=Melody of Love
TTITLE9=Memories Are Made of This
EXTD=
EXTT0=
EXTT1=
EXTT2=
EXTT3=
EXTT4=
EXTT5=
EXTT6=
EXTT7=
EXTT8=
EXTT9=
PLAYORDER=
